<?xml version="1.0" encoding="UTF-8" standalone="no"?>
<svg
   xmlns:dc="http://purl.org/dc/elements/1.1/"
   xmlns:cc="http://creativecommons.org/ns#"
   xmlns:rdf="http://www.w3.org/1999/02/22-rdf-syntax-ns#"
   xmlns:svg="http://www.w3.org/2000/svg"
   xmlns="http://www.w3.org/2000/svg"
   xmlns:sodipodi="http://sodipodi.sourceforge.net/DTD/sodipodi-0.dtd"
   xmlns:inkscape="http://www.inkscape.org/namespaces/inkscape"
   width="445.80000000000007"
   height="129.41770425005382"
   viewBox="0 0 370 107.41263026585892"
   class="css-1j8o68f"
   version="1.1"
   id="svg4544"
   sodipodi:docname="foxplore.svg"
   inkscape:version="0.92.4 (5da689c313, 2019-01-14)">
  <metadata
     id="metadata4548">
    <rdf:RDF>
      <cc:Work
         rdf:about="">
        <dc:format>image/svg+xml</dc:format>
        <dc:type
           rdf:resource="http://purl.org/dc/dcmitype/StillImage" />
        <dc:title></dc:title>
      </cc:Work>
    </rdf:RDF>
  </metadata>
  <sodipodi:namedview
     pagecolor="#ffffff"
     bordercolor="#666666"
     borderopacity="1"
     objecttolerance="10"
     gridtolerance="10"
     guidetolerance="10"
     inkscape:pageopacity="0"
     inkscape:pageshadow="2"
     inkscape:window-width="3440"
     inkscape:window-height="1377"
     id="namedview4546"
     showgrid="false"
     inkscape:zoom="6.6218037"
     inkscape:cx="215.19816"
     inkscape:cy="64.708855"
     inkscape:window-x="-8"
     inkscape:window-y="-8"
     inkscape:window-maximized="1"
     inkscape:current-layer="svg4544" />
  <defs
     id="SvgjsDefs1954" />
  <g
     id="SvgjsG1955"
     transform="matrix(2.3809524,0,0,2.3809524,-7.1428571,-3.1428571)"
     style="fill:#222831">
    <path
       d="M 24,45 C 12.402,45 3,35.598 3,24 3,12.402 12.402,3 24,3 35.598,3 45,12.402 45,24 45,35.598 35.598,45 24,45 Z M 24,5 C 13.507,5 5,13.507 5,24 5,34.493 13.507,43 24,43 34.493,43 43,34.493 43,24 43,13.507 34.493,5 24,5 Z m 16,20 h -1 c -0.553,0 -1,-0.447 -1,-1 0,-0.553 0.447,-1 1,-1 h 1 c 0.553,0 1,0.447 1,1 0,0.553 -0.447,1 -1,1 z m -6.021,8.204 c -0.032,0.188 -0.115,0.367 -0.261,0.514 -0.308,0.307 -0.762,0.355 -1.129,0.172 l 0.058,0.059 0.008,0.008 v 0 0 C 32.493,33.89 32.349,33.827 32.191,33.762 27.002,31.6 23.978,29.906 22.324,28.824 21.011,27.966 20.549,27.491 20.53,27.471 20.485,27.428 18.042,25.059 14.045,15.346 h 10e-4 c 0,0 0,0 -10e-4,0 l 0.067,0.067 C 14.102,15.393 14.1,15.371 14.092,15.351 14,15.139 13.99,14.908 14.054,14.69 c 0.044,-0.147 0.111,-0.29 0.229,-0.407 0.299,-0.299 0.738,-0.35 1.101,-0.181 0.009,0.004 0.02,0.005 0.028,0.01 l -0.023,-0.025 -0.043,-0.042 c 0,0 0,0 10e-4,0 h -10e-4 c 9.713,3.997 12.082,6.44 12.125,6.485 0.045,0.043 2.488,2.413 6.485,12.125 l -0.001,-10e-4 c 0.001,0 0.001,10e-4 0.001,10e-4 l -0.044,-0.044 -0.023,-0.022 c 0.023,0.047 0.032,0.097 0.048,0.146 0.049,0.153 0.069,0.312 0.042,0.469 z M 26.046,21.933 c -0.021,-0.021 -2.016,-1.927 -9.187,-5.073 3.146,7.171 5.055,9.167 5.095,9.208 0.021,0.021 2.016,1.928 9.187,5.073 -3.146,-7.172 -5.055,-9.167 -5.095,-9.208 z M 24,23 c 0.553,0 1,0.447 1,1 0,0.553 -0.447,1 -1,1 -0.553,0 -1,-0.447 -1,-1 0,-0.553 0.447,-1 1,-1 z M 24,10 C 23.447,10 23,9.552 23,9 V 8 c 0,-0.552 0.447,-1 1,-1 0.553,0 1,0.448 1,1 v 1 c 0,0.552 -0.447,1 -1,1 z m 0,28 c 0.553,0 1,0.447 1,1 v 1 c 0,0.553 -0.447,1 -1,1 -0.553,0 -1,-0.447 -1,-1 v -1 c 0,-0.553 0.447,-1 1,-1 z M 9,25 H 8 C 7.447,25 7,24.553 7,24 7,23.447 7.447,23 8,23 h 1 c 0.553,0 1,0.447 1,1 0,0.553 -0.447,1 -1,1 z"
       id="path4535"
       inkscape:connector-curvature="0"
       style="clip-rule:evenodd;fill-rule:evenodd" />
  </g>
  <g
     id="SvgjsG1956"
     transform="matrix(2.1108251,0,0,2.1108251,117.85525,-10.553825)"
     style="fill:#222831">
    <path
       d="M 14.688,5 V 5.078125 Q 14.84425,5 14.922375,5 15.605969,5.078125 15.78175,5.078125 V 5 q 0.976563,0.2929687 1.171875,0.546875 v 0.15625 l -0.07813,0.39063 q -0.15625,0 -0.9375,-0.15625 -0.3125,0.15625 -0.546875,0.15625 V 6.17188 q 0.390625,0 0.390625,0.15625 h -0.07813 L 15.234875,6.250005 H 15.15675 V 6.32813 q 0.410156,0.078125 0.46875,0.078125 V 6.48438 H 15.46925 Q 14.883313,6.32813 14.3755,6.32813 h -0.54688 q -0.410156,0 -5.625,0.78125 l -3.5938,0.39063 q 0.3125,1.3671875 0.3125,3.046875 v 1.3281 q 0,0.429687 0.078125,1.09375 -0.078125,0.117187 -0.078125,0.46875 h 0.078125 l -0.078125,0.15625 0.078125,0.15625 q -0.078125,0 -0.078125,0.07813 H 5.000445 L 4.92232,13.98436 v 0.15625 l 0.078125,0.15625 q -0.078125,0 -0.078125,0.07813 0.078125,0 0.078125,0.07813 -0.078125,0 -0.078125,0.07813 0.078125,0 0.078125,0.07813 -0.078125,0 -0.078125,0.07813 0.078125,0 0.078125,0.07813 H 4.92232 l 0.078125,0.15625 v 1.7969 q 0,0.07813 -0.078125,0.07813 0,0.07813 0.078125,0.07813 L 4.92232,17.26564 v 2.1875 q 0,0.07813 0.078125,0.07813 L 4.92232,19.68752 q 0,1.152344 -0.390625,8.90625 Q 4.45357,28.75002 4.45357,28.828145 6.8363825,28.43752 8.82857,28.43752 H 9.2192 q 0.078125,0 0.078125,-0.07813 1.25,0 1.25,0.46875 -0.07813,0 -0.07813,0.07813 0.07813,0 0.07813,0.07813 h -0.15625 l 0.07813,0.15625 Q 9.29733,29.355494 9.29733,29.6094 L 9.14108,29.53127 q 0,0.273437 -3.59375,0.46875 v 0.07813 q -0.078125,0 -0.078125,-0.07813 l -0.39063,0.07813 q -0.078125,0 -0.078125,-0.07813 -0.625,0.07813 -0.625,0.234375 l -0.3125,4.6094 q -0.078125,0 -0.078125,0.07813 h 0.07812 Q 3.7309138,38.457071 3.51607,39.21879 L 3.35982,39.14066 Q 3.0082575,39.433629 2.656695,39.60941 V 39.53129 L 2.73482,39.37504 2.42232,39.21879 v 0.3125 H 2.18794 q -0.1367187,0 -0.234375,-0.390625 L 2.03169,38.984415 Q 1.953565,38.828165 1.953565,38.75004 H 2.03169 L 1.953565,38.59379 v -0.54688 q 0,-0.07813 0.078125,-0.07813 l -0.15625,-0.3125 h 0.15625 q 0,-0.07813 -0.078125,-0.07813 L 2.03169,37.18753 V 36.4844 L 2.109815,36.32815 H 2.03169 L 2.18794,35.46877 H 2.109815 l 0.23438,-1.4063 q -0.078125,0 -0.078125,-0.07813 0.078125,0 0.078125,-0.07813 H 2.26607 l 0.23438,-1.5625 H 2.422325 l 0.15625,-0.9375 H 2.50045 L 2.578575,31.24997 V 30.70309 L 2.6567,30.23434 q -0.1171875,-0.3125 -0.234375,-0.3125 v 0.15625 Q 2.3442,31.445277 2.3442,31.718715 q -0.078125,0 -0.078125,0.07813 H 2.3442 Q 2.266075,31.972626 2.18795,32.81247 h 0.078125 q -0.078125,0.136719 -0.15625,0.9375 H 2.18795 q -0.15625,0 -0.3125,3.125 -0.078125,0 -0.078125,0.07813 H 1.87545 l -0.078125,0.15625 v 0.46875 q 0,0.742187 -0.078125,1.796875 0.078125,0.3125 0.078125,0.546875 -0.15625,0.07813 -0.234375,0.07813 -0.546875,0 -0.546875,-2.109375 0,-1.914063 0.546875,-6.40625 H 1.484825 q 0.625,-5.429688 0.625,-7.265625 0.078125,0 0.078125,-0.07813 H 2.109825 l 0.15625,-0.9375 H 2.18795 q 0.15625,-0.507813 0.3125,-4.296875 0.078125,0 0.078125,-0.07813 H 2.50045 l 0.078125,-0.15625 q 0,-0.07813 -0.078125,-0.07813 l 0.078125,-0.15625 Q 2.9692,10.566371 2.9692,9.218715 q 0,-0.5859375 -0.3125,-2.5 0.5859375,0.3710937 0.703125,3.828125 0,0.664062 -0.078125,4.765625 -0.078125,0 -0.078125,0.07813 H 3.2817 l -0.078125,0.15625 v 0.39063 q 0,0.234375 0.078125,0.234375 l -0.078125,0.39063 v 1.6406 L 3.12545,18.35933 q 0.078125,0 0.078125,0.07813 H 3.12545 l 0.078125,0.15625 v 0.15625 L 3.12545,19.14058 H 3.203575 L 3.12545,19.29683 v 1.3281 L 3.047325,20.78118 H 3.12545 q -0.078125,0.15625 -0.078125,0.234375 0,0.351562 -0.078125,2.34375 -0.078125,0 -0.078125,0.07813 H 2.9692 Q 2.891075,23.59368 2.891075,23.671805 2.81295,25.117117 2.81295,25.46868 H 2.734825 q 0,0.07813 0.078125,0.07813 l -0.078125,0.39063 v 0.625 L 2.6567,26.718685 H 2.734825 L 2.6567,26.874935 v 0.70313 l -0.078125,0.15625 q 0.078125,0 0.078125,0.07813 -0.078125,0 -0.078125,0.07813 h 0.23438 q 0,-0.175781 0.078125,-0.3125 H 2.812955 q 0.078125,-0.625 0.15625,-0.625 L 2.89108,26.796815 q 0.097656,-0.996094 0.15625,-1.09375 -0.078125,0 -0.078125,-0.07813 H 3.04733 L 2.969205,25.46869 3.04733,25.31244 H 2.969205 q 0.078125,-0.390625 0.15625,-0.390625 l -0.078125,-0.15625 0.078125,-0.15625 q -0.078125,0 -0.078125,-0.07813 0.078125,0 0.078125,-0.07813 H 3.04733 l 0.078125,-0.15625 Q 3.20358,22.402284 3.281705,22.18744 H 3.20358 q 0.078125,-0.625 0.15625,-0.625 L 3.281705,21.40619 V 21.17181 L 3.35983,21.01556 H 3.281705 L 3.35983,20.85931 3.281705,20.70306 h 0.15625 L 3.35983,20.54681 v -0.23438 q 0,-0.07813 0.078125,-0.07813 L 3.35983,20.078055 q 0,-0.07813 0.078125,-0.07813 L 3.35983,19.84368 q 0.078125,-0.15625 0.078125,-0.234375 -0.078125,0 -0.078125,-0.07813 l 0.15625,-0.07813 -0.078125,-0.15625 q 0,-0.07813 0.078125,-0.07813 L 3.437955,19.06243 Q 3.51608,18.925711 3.51608,18.74993 H 3.437955 L 3.51608,18.59368 q 0,-0.07813 -0.078125,-0.07813 L 3.51608,18.3593 v -0.70313 q 0,-0.07813 0.078125,-0.07813 L 3.51608,17.4218 3.594205,17.26555 H 3.51608 L 3.594205,17.1093 V 15.9374 L 3.51608,15.39052 H 3.75046 L 3.672335,15.23427 V 15.15614 L 3.75046,14.999895 H 3.672335 L 3.75046,14.843645 V 14.76552 L 3.672335,14.60927 H 3.75046 L 3.672335,14.45302 v -0.07813 q 0,-0.07813 0.078125,-0.07813 L 3.672335,14.14052 3.75046,13.74989 q -0.078125,0 -0.078125,-0.07813 0.078125,0 0.078125,-0.07813 -0.078125,0 -0.078125,-0.07813 h 0.15625 L 3.75046,13.359265 q 0.078125,0 0.078125,-0.07813 -0.078125,0 -0.078125,-0.07813 0.078125,0 0.078125,-0.07813 H 3.75046 l 0.078125,-0.15625 v -1.4844 L 3.90671,11.32799 q -0.078125,0 -0.078125,-0.07813 0.078125,0 0.078125,-0.07813 -0.078125,0 -0.078125,-0.07813 0.078125,0 0.078125,-0.07813 -0.078125,0 -0.078125,-0.07813 h 0.15625 v -0.07813 h -0.15625 v -0.07813 q 0.078125,0 0.234375,-0.07813 0,-0.07813 -0.078125,-0.07813 L 4.06296,10.23419 v -0.3125 q 0,-0.078125 -0.078125,-0.078125 L 4.06296,9.68736 V 9.29673 L 3.984835,9.14048 H 4.06296 L 3.984835,8.98423 v -0.3125 q 0,-1.015625 -0.3125,-1.015625 -0.390625,0 -0.390625,-0.15625 H 3.359835 Q 3.28171,7.343605 3.28171,7.26548 V 7.187355 h 0.078125 v 0.15625 Q 3.516085,7.26548 3.59421,7.26548 L 3.516085,7.10923 H 3.59421 q 0,-0.078125 -0.078125,-0.078125 L 3.59421,6.640475 v -0.3125 q 0.097656,0 0.390625,-0.234375 0.3125,0.390625 0.3125,0.546875 1.2109375,-0.4882813 4.0625,-0.703125 V 5.859225 q 0.078125,0 0.078125,0.078125 0.3710938,0 6.25,-0.9375 z M 2.5781,27.969 v 0.78125 L 2.499975,28.9065 H 2.5781 l -0.078125,0.15625 v 0.23438 h 0.23438 V 28.82838 L 2.81248,28.67213 q -0.078125,0 -0.078125,-0.07813 0.078125,0 0.078125,-0.07813 H 2.734355 L 2.81248,28.35963 V 27.969 Z m 15.214894,7.5193 q -2.226563,-0.03906 -3.339844,-5.332031 -0.273437,-2.03125 -0.332031,-4.589844 0,-0.07813 0.07813,-0.07813 0,-0.78125 0.136719,-2.265625 0.175781,-1.777344 0.566406,-3.242187 h -0.07813 l 0.76172,-2.2852 h -0.07813 q 0.175781,-0.234375 0.820312,-1.894532 l 0.13672,0.09766 q -0.05859,-0.117187 -0.05859,-0.234375 l 0.15625,0.09766 q 0,-0.09766 0.09766,-0.234375 h -0.07813 q 0,0.05859 -0.05859,0.05859 h -0.01953 v -0.07813 q 0.09766,-0.136719 0.09766,-0.214844 l 0.15625,0.07813 q 0.01953,-0.175781 0.644531,-1.035156 0.253907,-0.957031 0.546875,-0.957031 h 0.01953 l -0.01953,0.15625 h 0.07813 q 0.01953,-0.214844 0.703125,-0.78125 0.195313,-0.273438 0.839844,-0.46875 0.195313,-0.527344 1.660156,-0.859375 l 0.9375,-0.07813 q 0.878907,0.09766 1.972657,1.523437 1.347656,2.578125 1.347656,6.992188 0,1.621094 -0.175781,3.496094 -0.292969,3.105468 -1.074219,5.546875 h 0.07813 l -1.25,3.1836 q -0.859375,1.621093 -2.03125,2.304687 l -0.27344,0.29297 h 0.07813 q 0.01953,-0.05859 0.07813,-0.05859 h 0.01953 l -0.01953,0.15625 q -0.175781,-0.01953 -0.3125,-0.117187 v 0.07813 q 0.05859,0.01953 0.05859,0.05859 v 0.01953 q -2.246094,0.664062 -2.871094,0.664062 z m 6.1331,-18.7893 v -0.07813 l -0.11719,-0.23438 0.07813,-0.15625 -0.15625,-0.01953 q 0.117187,-0.15625 0.117187,-0.253906 0,-0.195313 -0.214844,-0.214844 0,-0.07813 0.07813,-0.07813 0,-0.3125 -0.195312,-0.332031 v -0.07813 l 0.09766,-0.15625 q -0.117188,0 -0.214844,-0.253907 h 0.01953 q 0.05859,0 0.07813,-0.05859 -0.175781,-0.253907 -0.292969,-0.273438 l 0.09766,-0.13672 q -0.917968,-1.738281 -1.640625,-1.816406 0.429688,0.664062 0.566407,0.683594 0,-0.07813 0.07813,-0.07813 l 0.05859,0.17578 -0.15625,-0.01953 q 0.234375,0.488281 0.351562,0.507812 v -0.07813 q -0.175781,-0.01953 -0.195312,-0.410156 0.683593,0.9375 0.859375,1.640625 -0.07813,0 -0.07813,0.07813 0.273437,0.03906 0.273437,0.390625 v 0.09766 q -0.07813,0 -0.09766,0.07813 h 0.07813 q 0.01953,-0.05859 0.07813,-0.05859 l 0.07813,0.15625 -0.17578,0.05859 v -0.01953 q 0,-0.05859 -0.05859,-0.05859 l -0.01953,0.07813 q 0.03906,0 0.234375,0.175782 v -0.07813 q -0.07813,0 -0.07813,-0.07813 l 0.15625,0.01953 v 0.03906 q 0,0.273437 0.234375,0.761718 -0.07813,0 -0.07813,0.05859 z m -3.9456,17.1291 Q 19.9219,33.652319 19.9219,33.593725 l 0.15625,0.07813 0.44922,-0.66406 h -0.07813 q -0.234375,0.507812 -0.507813,0.507812 v -0.07813 q 0.722657,-0.761718 1.71875,-3.144531 h -0.07813 q 1.015625,-2.324219 1.308594,-5.449219 0.273438,-2.519531 0.273438,-3.652343 0,-4.238282 -1.757813,-7.558594 -0.703125,-0.800781 -1.132812,-0.800781 -0.722657,0 -1.113282,1.210937 -0.07813,0 -0.175781,0.214844 0.07813,0.01953 0.07813,0.09766 -0.3125,0 -1.25,3.007813 -0.488281,1.894531 -0.683594,3.945312 -0.273437,2.753906 -0.273437,4.023438 0,4.433593 1.640625,7.636718 0.625,0.78125 1.09375,0.820313 l 0.01953,-0.07813 0.13672,0.09766 0.17578,-0.07813 v 0.01953 q 0,0.05859 0.05859,0.07813 z m 1.1914,-0.9765 q 0.488281,-0.332031 1.347656,-2.460938 l -0.07813,-0.01953 0.27344,-0.44922 h -0.07813 l 0.19531,-0.29297 h -0.07813 l 0.17578,-0.3125 h -0.07813 q 0.292969,-0.703125 0.703125,-2.363281 -0.05859,0 -0.05859,-0.05859 h 0.03906 q 0.03906,-0.01953 0.03906,-0.09766 h -0.07813 q 0.15625,-0.839844 0.234375,-0.839844 -0.05859,-0.175781 -0.05859,-0.253906 0.117187,-0.214844 0.195312,-0.214844 l -0.07813,-0.15625 q 0.03906,-0.15625 0.09766,-0.15625 -0.01953,-0.625 -0.09766,-0.644531 0.117188,-0.371094 0.195313,-0.371094 l -0.05859,-0.15625 0.09766,-1.0156 0.09766,-0.13672 -0.15625,-0.01953 v -0.07813 l 0.15625,0.01953 q 0,-0.136718 -0.05859,-0.253906 h 0.01953 q 0.05859,0 0.07813,-0.05859 l -0.07813,-0.01953 q -0.01953,0.07813 -0.09766,0.07813 l 0.07813,-0.78125 0.09766,-0.13672 -0.15625,-0.01953 q 0.175781,-0.175781 0.175781,-0.214843 l -0.07813,-0.01953 q 0,0.07813 -0.07813,0.07813 v -0.15625 l 0.15625,0.01953 0.01953,-0.07813 -0.15625,-0.01953 q 0,-0.07813 0.07813,-0.07813 l -0.05859,-0.15625 0.09766,-0.15625 h -0.07813 q -0.01953,0.07813 -0.09766,0.07813 l -0.05859,-0.17578 0.23438,0.01953 0.01953,-0.07813 h -0.15625 l 0.07813,-0.15625 q -0.05859,0 -0.05859,-0.05859 v -0.01953 h 0.07813 q -0.117187,-0.234375 -0.117187,-0.371094 v -0.03906 h 0.01953 q 0.05859,0 0.05859,-0.05859 -0.07813,-0.01953 -0.07813,-0.09766 l 0.07813,0.01953 q -0.03906,-0.234375 -0.117188,-0.253906 0.05859,-0.09766 0.09766,-0.214844 l -0.15625,-0.01953 0.09766,-0.15625 -0.07813,-0.15625 0.03906,-0.23438 h -0.07813 l 0.09766,-0.23438 h -0.07813 l -0.01953,0.15625 -0.07813,-0.01953 v -0.15625 q 0,-0.390625 -0.136718,-0.800781 h -0.07813 l 0.09766,-0.23438 h -0.15625 l 0.01953,-0.15625 0.13672,0.07813 0.09766,-0.13672 -0.07813,-0.01953 q 0,0.07813 -0.07813,0.07813 l -0.72266,-2.4219 q 0.07813,0 0.09766,-0.07813 h -0.07813 q -0.01953,0.05859 -0.07813,0.05859 h -0.01953 v -0.03906 q 0,-0.15625 -0.175781,-0.449219 h 0.01953 q 0.05859,0 0.05859,-0.05859 -0.09766,-0.01953 -0.839843,-1.035156 v 0.07813 q 1.679687,2.382812 1.757812,8.574219 h -0.07813 l 0.05859,0.15625 -0.07813,0.70313 q 0,0.175781 0.05859,0.3125 -0.01953,0.07813 -0.09766,0.07813 0.01953,0.78125 0.09766,0.78125 l -0.09766,0.15625 q -0.09766,1.074218 -0.175781,1.074218 h -0.01953 l 0.07813,0.17578 q -0.01953,0.15625 -0.117188,0.292969 0.07813,0.01953 0.07813,0.09766 l -0.07813,-0.01953 v 0.01953 q 0,0.05859 0.05859,0.07813 -0.195313,1.972657 -1.5625,5.566407 0.07813,0.01953 0.07813,0.09766 -0.09766,0 -0.683594,1.269531 z m 1.5039,-18.7106 0.01953,-0.13672 -0.13672,-0.09766 q 0.03906,0.117187 0.03906,0.195312 v 0.03906 h 0.07813 z m -5.0977,0.918 q 0.01953,-0.175781 0.292968,-0.585937 l -0.07813,-0.01953 q -0.117187,0 -0.351562,0.371093 0.05859,0.15625 0.05859,0.234375 z m -1.582,17.7535 q -0.585938,-1.679688 -0.859375,-4.003906 0.07813,0 0.07813,-0.07813 -0.05859,0 -0.05859,-0.05859 v -0.01953 h 0.07813 q -0.15625,-0.800781 -0.15625,-1.464844 0,-0.3125 0.03906,-0.585937 0.07813,0 0.07813,-0.07813 -0.136719,0 -0.136719,-0.117188 v -0.03906 h 0.07813 q -0.03906,-0.175781 -0.05859,-1.035156 l 0.07813,0.01953 -0.05859,-0.15625 q 0.01953,-0.214844 0.117188,-0.390625 -0.07813,0 -0.07813,-0.07813 h 0.07813 l -0.05859,-0.15625 0.09766,-1.0156 q 0,-0.07813 -0.07813,-0.07813 l 0.09766,-0.15625 q 0.117187,-1.152344 0.175781,-1.152344 h 0.01953 q -0.05859,-0.117187 -0.05859,-0.253906 l 0.09766,-0.13672 -0.07813,-0.01953 q 0.09766,-0.175781 0.234375,-0.761719 h -0.07813 l 0.21484,-0.60547 -0.07813,-0.01953 0.23438,-0.76172 h -0.07813 q 0.195313,-0.371094 0.195313,-0.527344 h -0.07813 l 0.19531,-0.3125 h -0.07813 q 0.09766,-0.214843 0.15625,-0.214843 h 0.01953 l -0.05859,-0.15625 q 0.878906,-2.5 1.25,-3.183594 -0.05859,-0.15625 -0.05859,-0.234375 l -0.07813,-0.01953 q -0.01953,0.136719 -0.390625,0.742187 0.07813,0.01953 0.07813,0.09766 -0.195313,0 -0.898438,2.03125 l -0.01953,0.07813 q 0.07813,0 0.07813,0.07813 -0.429687,0 -1.113281,4.921875 l -0.01953,0.15625 0.07813,0.15625 -0.17578,0.05859 0.05859,0.17578 -0.15625,0.91797 0.07813,0.01953 -0.09766,0.13672 0.05859,0.15625 q -0.07813,0 -0.07813,0.07813 h 0.07813 q -0.09766,0.175781 -0.117187,0.390625 l 0.05859,0.15625 h -0.07813 q 0.03906,0.46875 0.117187,0.488281 -0.01953,0.05859 -0.07813,0.05859 h -0.01953 q -0.03906,0.507812 -0.03906,1.035156 0,2.382812 0.917968,5.410156 0.175782,0.46875 0.332032,0.507813 z m 8.125,-14.9025 -0.05859,-0.17578 0.09766,-0.13672 -0.07813,-0.01953 -0.09766,0.15625 q 0,0.15625 0.136719,0.175781 z m -7.8711,13.9845 q -0.03906,-0.09766 -0.03906,-0.234375 V 31.582 l -0.07813,-0.01953 -0.03906,0.23438 z m 1.3281,2.4024 0.01953,-0.07813 q -0.253906,-0.09766 -1.230469,-1.992188 0.07813,0 0.09766,-0.07813 l -0.21484,-0.17578 -0.01953,0.07813 q 0.644532,2.1875 1.347657,2.246093 z m -1.5234,-1.1719 v -0.11719 q 0,-0.117188 -0.136719,-0.136719 v 0.07813 q 0,0.175781 0.136719,0.175781 z m 0.1953,0.332 0.01953,-0.07813 Q 16.074212,33.203094 16.03515,33.203094 v 0.07813 z m 3.4961,6.28909 q -1.855469,0 -3.378907,-0.15625 -1.855468,-0.175781 -2.011718,-0.175781 -0.351563,0 -1.035156,0.03906 l -0.05859,-0.15625 0.01953,-0.23438 0.13672,0.09766 h 0.07813 l -0.05859,-0.15625 q 0.117187,0 0.722656,-0.09766 l -0.07813,-0.15625 q 0.234375,-0.332031 0.585937,-0.332031 h 0.07813 L 14.6875,38.26171 q 0.01953,-0.175781 1.484375,-0.175781 0.878907,0 2.285157,0.05859 l 0.01953,-0.07813 0.13672,0.09766 2.1875,0.21484 q 1.757812,0.175782 1.757812,0.488282 l -0.09766,0.136719 0.15625,0.01953 v 0.07813 h -0.01953 q -0.15625,0 -0.332031,0.292968 -0.859375,0 -1.367188,0.332032 z m 23.75,-30.44909 h 0.07813 l 0.15625,0.078125 q 0,0.4296875 -1.25,2.8125 0.07813,0 0.07813,0.07813 -0.234375,0 -5.3125,10.625 -0.800782,1.425781 -1.71875,3.59375 3.203125,8.242187 4.296875,11.875 v 0.15625 q 0,0.605469 -0.546875,0.703125 0,0.07813 -0.07813,0.07813 h -0.15625 q -0.175782,-0.01953 -0.46875,-0.703125 h -0.07813 q 0,-0.07813 0.07813,-0.07813 0,-0.234375 -0.234375,-0.234375 l 0.07813,-0.15625 V 38.047 h -0.15625 l 0.07813,-0.15625 -0.15625,-0.23438 h 0.07813 q -0.07813,-0.136719 -0.07813,-0.3125 l -0.15625,0.07813 v -0.07813 l 0.07813,-0.15625 h -0.15625 l 0.07813,-0.15625 v -0.07813 l -0.15625,0.07813 v -0.07813 q 0.07813,-0.15625 0.07813,-0.234375 l -0.15625,0.07813 v -0.07813 q 0.07813,-0.15625 0.07813,-0.234375 l -0.15625,0.07813 q 0,-0.07813 -0.07813,-0.07813 0,0.15625 -0.15625,0.15625 v 0.07813 h 0.15625 q 0,-0.07813 0.07813,-0.07813 0,0.234375 0.234375,0.625 -0.07813,0 -0.07813,0.07813 0.15625,0.01953 0.15625,0.15625 v 0.07813 l -0.07813,0.15625 q 0.253906,0 0.390625,0.78125 -0.195313,-0.15625 -0.234375,-0.15625 v 0.07813 q 0.195312,0.15625 0.3125,0.15625 v 0.15625 L 38.261744,38.672 v 0.15625 h 0.07813 l 0.15625,-0.07813 v 0.07813 l -0.07813,0.15625 q 0.07813,0 0.07813,0.07813 h -0.15625 q -0.15625,-0.07813 -0.234375,-0.07813 0,-0.07813 0.07813,-0.07813 l -0.85938,-2.0313 h -0.07813 l 0.07813,-0.15625 v -0.07813 q -0.390625,-0.761719 -2.8125,-7.734375 -0.15625,0.01953 -0.15625,0.15625 v 0.07813 q 0,0.546875 0.234375,0.546875 0,0.07813 -0.07813,0.07813 1.191406,3.339844 1.328125,3.515625 h 0.07813 q 0,0.07813 -0.07813,0.07813 1.640625,4.746094 2.34375,6.171875 -0.07813,0 -0.07813,0.07813 h 0.15625 q 0,0.15625 -0.15625,0.15625 -0.15625,-0.07813 -0.234375,-0.07813 0,0.07813 -0.07813,0.07813 -0.957032,-1.542969 -3.671875,-9.609375 -0.15625,-0.3125 -0.234375,-0.3125 -1.09375,2.1875 -1.640625,3.4375 -2.480469,5.117187 -3.046875,5.859375 -0.273438,0 -0.78125,0.390625 h -0.07813 q 0.07813,-0.15625 0.07813,-0.234375 v -0.07813 h -0.07813 q 0,0.214844 -0.546875,0.3125 l 0.07813,-0.15625 q -0.15625,0.07813 -0.234375,0.07813 v 0.07813 h 0.15625 v 0.07813 q -0.390625,0 -0.390625,0.390625 h -0.3125 q 0,-0.07813 -0.07813,-0.234375 h 0.07813 q -0.15625,-0.3125 -0.15625,-0.46875 0.07813,-0.136719 0.07813,-0.3125 -0.07813,0 -0.07813,-0.07813 h 0.15625 l -0.07813,-0.15625 v -0.07813 l 0.15625,0.07813 -0.07813,-0.15625 v -0.07813 l 0.15625,0.07813 q 0,-0.234375 0.703125,-1.40625 l -0.07813,-0.15625 v -0.07813 l 0.15625,0.07813 -0.07813,-0.15625 v -0.07813 l 0.15625,0.07813 0.07813,-0.15625 -0.07813,-0.15625 q 0.3125,0 0.3125,-0.3125 -0.07813,-0.15625 -0.07813,-0.234375 l 0.15625,0.07813 0.07813,-0.15625 h -0.07813 q 0,0.07813 -0.07813,0.07813 v -0.07813 q 0.01953,-0.15625 0.15625,-0.15625 0,0.07813 0.07813,0.07813 0,-0.09766 0.703125,-1.484375 -0.07813,0 -0.07813,-0.07813 0.292968,0 1.25,-2.1875 0.136718,-0.05859 1.40625,-2.65625 0.449218,-0.527344 0.625,-1.171875 0.15625,0.01953 0.15625,0.15625 l -0.07813,0.15625 h 0.07813 q 0,-0.07813 0.07813,-0.07813 l -0.07813,-0.3125 0.15625,-0.54688 h 0.15625 q 0,0.214844 -0.15625,0.46875 h 0.07813 q 0.15625,-0.390625 0.234375,-0.390625 l -0.15625,-0.3125 h 0.07813 q -4.84375,-14.121094 -5.390625,-16.25 v -0.07813 q 0.15625,0 2.65625,7.265625 1.40625,3.886719 1.71875,4.53125 h -0.07813 q 1.269531,3.496094 1.40625,3.59375 0,-0.117188 0.390625,-1.015625 -2.890625,-7.8125 -4.765625,-13.4375 h -0.15625 q 0,-0.07813 0.07813,-0.07813 -0.3125,-0.761719 -0.3125,-1.09375 v -0.07813 q 0,-0.117188 0.3125,-0.3125 0.527343,0.683594 3.359375,7.96875 0,0.175781 0.234375,0.46875 h -0.07813 l 2.2656,5.625 h 0.15625 q 0.800781,-1.660156 2.734375,-5.390625 -0.07813,0 -0.07813,-0.07813 0.292968,0 1.171875,-2.109375 0.429687,-0.585938 1.5625,-3.046875 1.738281,-3.28125 2.03125,-3.671875 0.07813,0 0.07813,-0.15625 h 0.07813 v 0.15625 l -7.2656,14.375 h 0.07813 l 5.4688,-10.625 q -0.07813,0 -0.07813,-0.07813 0.234375,-0.01953 0.9375,-1.71875 0.05859,0 1.484375,-2.734375 0.195312,0 0.390625,-0.15625 z M 34.980494,25 v 0.07813 q 0.15625,0 0.15625,-0.15625 V 24.84375 Q 34.980494,24.863281 34.980494,25 Z m -0.2344,3.281 q 0,0.07813 -0.07813,0.234375 l 0.15625,0.3125 h -0.15625 v -0.15625 h -0.07813 v 0.23438 q 0.15625,0.01953 0.15625,0.15625 h -0.07813 l 0.15625,0.3125 q -0.07813,0 -0.07813,0.07813 h 0.23438 q -0.15625,-0.195313 -0.15625,-0.234375 h 0.07813 l 0.15625,0.07813 0.07813,-0.15625 q -0.273438,-0.859375 -0.390625,-0.859375 z m -1.5625,0.235 q 0,0.07813 -0.07813,0.234375 h 0.07813 l 0.07813,-0.15625 V 28.516 Z m -0.7812,0.468 -0.07813,0.15625 v 0.07813 h 0.07813 q 0,-0.07813 0.07813,-0.234375 z m 2.6562,0.625 -0.15625,-0.07813 v 0.15625 q 0.117187,0.3125 0.234375,0.3125 0,-0.07813 0.07813,-0.07813 l 0.07813,0.15625 V 30.234 q -0.195313,-0.15625 -0.234375,-0.15625 0.07813,0.15625 0.07813,0.234375 h 0.07813 l 0.15625,-0.07813 v 0.23438 l -0.15625,-0.07813 v 0.07813 q 0.07813,0 0.07813,0.07813 -0.07813,0 -0.07813,0.07813 l 0.15625,0.07813 v -0.23438 h 0.07813 q 0,0.117188 0.15625,0.625 l -0.23438,-0.15625 v 0.07813 q 0.15625,0.01953 0.15625,0.15625 h -0.07813 q 0.07813,0.15625 0.07813,0.234375 h 0.07813 l 0.15625,-0.07813 v 0.23438 l -0.15625,-0.07813 v 0.07813 l 0.15625,0.07813 q 0,-0.07813 0.07813,-0.07813 0.3125,0.859375 0.3125,0.9375 0.15625,0 0.15625,-0.15625 h -0.15625 l 0.07813,-0.15625 q 0,-0.527344 -0.3125,-0.546875 l 0.07813,-0.15625 v -0.07813 l -0.15625,0.07813 v -0.07813 l 0.07813,-0.15625 q -0.15625,0 -0.15625,-0.15625 0.07813,0 0.07813,-0.07813 h -0.15625 l 0.07813,-0.15625 v -0.07813 l -0.15625,0.07813 v -0.07813 l 0.07813,-0.15625 -0.3125,-0.625 q 0.07813,0 0.07813,-0.07813 h -0.15625 l 0.07813,-0.15625 h -0.15625 l 0.07813,-0.15625 q -0.07813,-0.136719 -0.07813,-0.3125 -0.15625,0 -0.15625,0.3125 z m -2.9687,0 -0.15625,0.3125 v 0.07813 h 0.07813 q 0,-0.136719 0.15625,-0.390625 z m 2.9687,0 h 0.07813 q 0,0.07813 0.07813,0.234375 h -0.15625 v -0.23438 z m 0.625,1.4847 v 0.23438 q -0.15625,0 -0.15625,-0.15625 z m -4.5312,0.2344 q 0,0.07813 -0.07813,0.234375 h 0.07813 l 0.07813,-0.15625 V 31.3281 Z m 5.1562,1.1719 q -0.03906,0.3125 -0.234375,0.3125 v 0.07813 h 0.15625 q 0,-0.07813 0.07813,-0.07813 l 0.54688,1.6406 h 0.07813 v -0.07813 q -0.07813,-0.136719 -0.07813,-0.3125 0.07813,0 0.07813,-0.07813 h -0.07813 q 0,0.07813 -0.07813,0.07813 v -0.15625 q 0,-0.07813 0.07813,-0.07813 -0.07813,-0.136719 -0.07813,-0.3125 l -0.15625,0.07813 V 33.5156 l 0.07813,-0.15625 h -0.07813 q 0,0.07813 -0.07813,0.07813 v -0.07813 l 0.07813,-0.15625 h -0.15625 l 0.07813,-0.15625 q -0.07813,0 -0.07813,-0.07813 h 0.07813 q -0.07813,-0.136719 -0.07813,-0.3125 l -0.15625,0.07813 v -0.07813 l 0.07813,-0.15625 h -0.07813 z m 0.7035,1.9531 -0.07813,0.15625 v 0.07813 h 0.07813 q 0,-0.07813 0.07813,-0.234375 z m 0.078,0.4688 v 0.15625 l 0.15625,-0.07813 q 0,0.07813 0.07813,0.07813 v -0.07813 l -0.15625,-0.07813 z m 0.078,0.2343 0.39063,1.25 h 0.23438 v -0.07813 h -0.15625 v -0.07813 l 0.07813,-0.15625 q -0.234375,0 -0.234375,-0.15625 v -0.07813 l 0.07813,-0.15625 h -0.15625 v -0.07813 l 0.07813,-0.15625 h -0.07813 q 0,0.07813 -0.07813,0.07813 v -0.15625 l 0.07813,-0.15625 -0.15625,-0.07813 h -0.07813 z M 47.031262,8.359 q 0.253907,0 0.46875,1.5625 h 0.07813 q 0,0.078125 -0.07813,0.078125 0.07813,1.367188 0.07813,1.640625 -0.07813,1.347656 -0.07813,1.5625 h 0.07813 l -0.07813,0.15625 -0.3125,7.5781 h 0.07813 q -0.07813,0.15625 -0.07813,0.234375 v 0.15625 h 0.07813 q 0.878907,-2.519531 3.28125,-6.09375 4.648438,-5.703125 8.125,-5.703125 2.851563,0 3.28125,3.671875 0,3.808594 -4.609375,7.96875 -3.847656,2.734375 -6.875,2.734375 -0.703125,0 -2.265625,-0.546875 -0.175781,0 -1.09375,3.828125 -0.546875,3.300781 -0.78125,5.625 h 0.07813 q -0.234375,0.761719 -0.234375,2.65625 v 0.9375 l -0.07813,0.9375 h 0.07813 l -0.07813,0.15625 v 0.46875 q 0,0.703125 -0.15625,1.328125 h -0.07813 q -0.15625,0 -0.15625,-0.234375 h -0.07813 q 0,0.195312 -0.390625,0.234375 0,0.15625 -0.15625,0.15625 h -0.07813 v -0.23438 h -0.07813 q -0.371093,0.390625 -0.78125,0.390625 -0.117187,0.390625 -0.546875,0.390625 -0.46875,-0.605469 -0.46875,-2.265625 v -0.39063 q 0,-0.07813 0.07813,-0.07813 0,-0.07813 -0.07813,-0.07813 l 0.07813,-0.39063 q 0,-1.308594 0.46875,-5.078125 h -0.07813 q 0.703125,-4.296875 1.40625,-10.703125 -0.07813,0 -0.07813,-0.07813 0.253907,0 0.390625,-3.4375 0.46875,-3.710938 0.46875,-6.40625 v -0.625 q 0,-0.07813 -0.07813,-0.07813 l 0.07813,-0.15625 q -0.07813,-1.1328125 -0.07813,-1.25 V 8.905835 h 0.07813 q 0.3125,0.5273437 0.3125,2.109375 v 0.15625 q 0,0.07813 0.07813,0.07813 l -0.07813,0.15625 v 1.6406 q 0,0.07813 0.07813,0.07813 l -0.07813,0.15625 q 0,0.136719 -0.15625,2.734375 0.07813,0 0.07813,0.07813 l -0.15625,0.07813 q 0,0.07813 0.07813,0.07813 -0.07813,0.136719 -0.15625,2.34375 -0.07813,0 -0.07813,0.07813 h 0.07813 l -0.15625,0.9375 q 0.07813,0 0.07813,0.07813 -0.07813,0 -0.07813,0.07813 h 0.07813 l -0.15625,0.78125 q 0.07813,0 0.07813,0.07813 -0.07813,0 -0.07813,0.07813 h 0.07813 q -0.07813,0.175781 -0.15625,1.015625 h 0.07813 l -1.3281,11.406 h 0.07813 l -0.07813,0.15625 -0.23438,4.0625 v 0.07813 h 0.07813 q 0.15625,-0.917969 0.15625,-1.796875 0.07813,0 0.07813,-0.07813 h -0.07813 q 0.07813,-0.15625 0.07813,-0.234375 0,-1.015625 0.15625,-1.640625 h -0.07813 q 0.390625,-3.945313 0.859375,-6.5625 h -0.07813 l 0.07813,-0.15625 q 0,-0.07813 -0.07813,-0.07813 0.07813,-0.175781 0.15625,-0.703125 h -0.07813 q 0.136719,-0.371094 0.234375,-0.9375 h -0.07813 q 0.15625,-0.488281 0.15625,-0.625 h -0.07813 q 0.07813,-0.234375 0.15625,-0.234375 l -0.07813,-0.15625 0.07813,-0.15625 h -0.07813 q 0.07813,-0.175781 0.234375,-1.171875 h -0.07813 q 0.05859,-0.15625 0.15625,-0.859375 h -0.15625 v -0.07813 q 0.175782,0 0.234375,-0.46875 -0.07813,0 -0.07813,-0.07813 0.07813,0 0.07813,-0.07813 h -0.07813 l 0.15625,-0.70313 h -0.07813 q 0.07813,-0.46875 0.15625,-0.46875 0,-0.07813 -0.07813,-0.07813 0.09766,-0.839844 0.15625,-1.015625 h -0.07813 l 0.15625,-0.78125 q -0.07813,0 -0.07813,-0.07813 0.07813,0 0.07813,-0.07813 h -0.07813 l 0.15625,-0.85938 q -0.07813,0 -0.07813,-0.07813 0.07813,0 0.07813,-0.07813 h -0.07813 q 0.05859,-0.214844 0.15625,-0.9375 h -0.07813 q 0.07813,-0.9375 0.234375,-0.9375 -0.07813,-0.15625 -0.07813,-0.234375 v -0.70313 h 0.07813 v 0.625 h 0.07813 q 0.15625,-2.851563 0.15625,-4.53125 v -0.23438 q 0,-0.07813 -0.07813,-0.07813 0,-0.078125 0.07813,-0.078125 0,-0.1953125 -0.15625,-1.09375 0.07813,0 0.07813,-0.078125 h -0.07813 q 0.117188,-0.3320313 0.390625,-0.46875 z m 11.874801,2.032 v 0.07813 h 0.15625 l -0.07813,0.15625 0.54688,0.54688 q -0.07813,0 -0.07813,0.07813 1.015625,0.957031 1.015625,2.96875 -0.07813,0.742187 -0.15625,0.859375 h 0.07813 q -0.3125,1.09375 -0.78125,2.109375 h 0.07813 q 1.152343,-1.914062 1.25,-3.359375 h 0.07813 v 0.15625 h 0.07813 v -0.78125 q 0,-1.933594 -1.5625,-2.65625 -0.390625,-0.15625 -0.546875,-0.15625 h -0.07813 z m -3.906001,1.562 -0.15625,-0.07813 q -3.183593,3.183594 -4.765625,6.40625 -1.171875,2.597656 -1.796875,4.53125 0,0.292969 0.859375,0.390625 h 0.07813 v -0.07813 q -0.39063,-0.05858 -0.39063,-0.234365 h 0.15625 l -0.07813,-0.15625 0.3125,-0.39063 q -0.07813,0 -0.07813,-0.07813 h 0.07813 q 1.757813,0.234375 2.1875,0.234375 2.65625,0 5.390625,-2.109375 2.480469,-2.597656 3.046875,-4.6875 l -0.07813,-0.3125 0.15625,0.07813 -0.07813,-0.15625 q 0.234375,-0.9375 0.234375,-1.71875 v -0.15625 q 0,-2.050781 -2.34375,-2.65625 h -0.3125 q -1.816406,0.3125 -2.421875,1.09375 V 11.953 Z m -8.515699,3.75 v 0.3125 h 0.07813 V 15.703 Z m 2.656299,2.344 q -2.109375,4.082031 -2.109375,5.234375 v 0.46875 h 0.07813 q 0.664058,-2.773438 2.10937,-5.703125 z m 17.675719,22.24597 q -3.28125,-0.15625 -3.515625,-1.660156 -0.117187,0 -0.46875,-1.503907 -0.07813,-0.527343 -0.07813,-1.445312 0,-2.714844 0.683594,-8.847656 0.214844,-1.71875 0.371094,-4.726563 l -0.07813,0.01953 q 0.09766,-0.292969 0.09766,-0.800781 v -0.17578 h -0.01953 q -0.05859,0 -0.07813,-0.05859 0.117188,-0.01953 0.117188,-1.074219 0,-0.78125 -0.05859,-2.089843 0.07813,-0.01953 0.07813,-0.566407 h -0.07813 v -0.82031 q 0,-3.164062 -0.273438,-4.941406 L 63.06638,9.7265672 h 0.07813 q 0.429688,0.7031248 0.878907,2.1484378 -0.03906,0.117187 -0.03906,0.234375 l 0.11719,0.15625 q -0.07813,0 -0.07813,0.07813 0.07813,0 0.09766,0.07813 -0.07813,0 -0.07813,0.07813 0.07813,0 0.09766,0.07813 -0.05859,0 -0.05859,0.05859 v 0.01953 l 0.07813,-0.01953 -0.05859,0.17578 q 0.05859,0.292969 0.09766,0.292969 h 0.01953 l -0.03906,0.17578 q 0.214844,1.757813 0.214844,2.539063 v 0.35156 l 0.07813,-0.01953 0.03906,3.8672 h 0.07813 q -0.05859,0.429687 -0.05859,1.171875 v 0.41016 l 0.07813,-0.01953 -0.11719,1.8359 h 0.07813 l -0.11719,0.80078 h 0.07813 l -0.05859,0.625 h 0.07813 q -0.07813,0.273437 -0.07813,0.820312 v 0.21484 h 0.01953 q 0.05859,0 0.07813,0.05859 -0.136719,0.01953 -0.175781,0.429687 l 0.23438,-0.03906 v -0.11719 l 0.01953,-0.19531 h -0.05859 q 0.117187,-0.234375 0.234375,-4.453125 h -0.07813 q 0.05859,-0.664062 0.05859,-2.695312 l -0.07813,0.01953 0.05859,-1.1133 h -0.07813 l 0.05859,-0.64453 -0.07813,0.01953 q 0.03906,-0.429688 0.03906,-1.230469 l -0.01953,-1.2305 -0.07813,0.01953 q 0.01953,-0.390625 0.09766,-0.410156 -0.01953,-0.05859 -0.07813,-0.05859 h -0.01953 q 0,-0.488281 0.09766,-0.488281 l -0.11719,-0.15625 0.05859,-0.15625 q -0.07813,0 -0.07813,-0.05859 0.05859,-0.01953 0.05859,-0.07813 v -0.01953 h -0.01953 q -0.05859,0 -0.07813,-0.05859 0.07813,-0.01953 0.07813,-0.09766 h -0.01953 q -0.05859,0 -0.07813,-0.05859 0.136719,-0.03906 0.136719,-0.15625 l -0.17578,-1.191399 h 0.05859 l 0.11719,0.68359 h 0.07813 l -0.23438,-1.4648 q -0.05859,-0.351563 -0.253906,-0.351563 h -0.03906 v -0.07813 l 0.15625,-0.03906 q -0.01953,-0.117188 -0.390625,-0.9570313 0.05859,-0.3320312 0.3125,-0.5273437 0.878906,0.4492187 1.523437,3.710937 0.585938,5.917969 0.585938,11.347657 l -0.01953,1.8555 0.07813,-0.01953 q -0.15625,0.449218 -0.15625,5.449218 0,5.234375 0.07813,5.800782 0.195312,1.171875 1.308594,1.210937 0,0.05859 0.410156,0.05859 1.542969,0 9.082031,-0.976563 l -0.03906,0.15625 0.13672,-0.01953 q 0.01953,0.07813 0.01953,0.175782 0,0.371093 -0.625,0.46875 -0.429687,0.3125 -0.507812,0.3125 l -0.39063,-0.01953 0.09766,0.15625 -4.2969,0.82031 0.01953,0.07813 -0.17578,-0.05859 q -2.460938,0.46875 -3.222656,0.585937 v 0.07813 l -0.50781,0.01953 q -0.273438,0 -0.273438,-0.03906 l -0.15625,0.09766 -0.46875,-0.01953 z M 64.492181,26.992 v -0.03906 q 0,-0.117187 0.136719,-0.15625 l -0.09766,-0.13672 q 0.117187,-0.214844 0.117187,-0.253906 -0.214843,0.05859 -0.253906,0.507812 l 0.01953,0.07813 h 0.07813 z m 1.1524,12.14862 0.11719,-0.01953 -0.01953,-0.07813 h -0.01953 q -0.117187,0 -0.507812,-0.3125 l 0.09766,0.13672 -0.03906,0.17578 q 0.234375,0.09766 0.371093,0.09766 z m 16.6406,-3.65232 q -2.226562,-0.03906 -3.339844,-5.332031 -0.273437,-2.03125 -0.332031,-4.589844 0,-0.07813 0.07813,-0.07813 0,-0.78125 0.136719,-2.265625 0.175781,-1.777344 0.566406,-3.242187 h -0.07813 l 0.76172,-2.2852 h -0.07813 q 0.175781,-0.234375 0.820313,-1.894532 l 0.13672,0.09766 q -0.05859,-0.117187 -0.05859,-0.234375 l 0.15625,0.09766 q 0,-0.09766 0.09766,-0.234375 h -0.07813 q 0,0.05859 -0.05859,0.05859 h -0.01953 v -0.07813 q 0.09766,-0.136719 0.09766,-0.214844 l 0.15625,0.07813 q 0.01953,-0.175781 0.644531,-1.035156 0.253906,-0.957031 0.546875,-0.957031 h 0.01953 l -0.01953,0.15625 h 0.07813 q 0.01953,-0.214844 0.703125,-0.78125 0.195312,-0.273438 0.839844,-0.46875 0.195312,-0.527344 1.660156,-0.859375 l 0.9375,-0.07813 q 0.878906,0.09766 1.972656,1.523437 1.347656,2.578125 1.347656,6.992188 0,1.621094 -0.175781,3.496094 -0.292969,3.105468 -1.074219,5.546875 h 0.07813 l -1.25,3.1836 q -0.859375,1.621093 -2.03125,2.304687 l -0.27344,0.29297 h 0.07813 q 0.01953,-0.05859 0.07813,-0.05859 h 0.01953 l -0.01953,0.15625 q -0.175781,-0.01953 -0.3125,-0.117187 v 0.07813 q 0.05859,0.01953 0.05859,0.05859 v 0.01953 q -2.246094,0.664062 -2.871094,0.664062 z m 6.1331,-18.7893 v -0.07813 l -0.11719,-0.23438 0.07813,-0.15625 -0.15625,-0.01953 q 0.117188,-0.15625 0.117188,-0.253906 0,-0.195313 -0.214844,-0.214844 0,-0.07813 0.07813,-0.07813 0,-0.3125 -0.195312,-0.332031 v -0.07813 l 0.09766,-0.15625 q -0.117188,0 -0.214844,-0.253907 h 0.01953 q 0.05859,0 0.07813,-0.05859 -0.175781,-0.253907 -0.292969,-0.273438 l 0.09766,-0.13672 q -0.917969,-1.738281 -1.640625,-1.816406 0.429688,0.664062 0.566406,0.683594 0,-0.07813 0.07813,-0.07813 l 0.05859,0.17578 -0.15625,-0.01953 q 0.234375,0.488281 0.351563,0.507812 v -0.07813 q -0.175781,-0.01953 -0.195313,-0.410156 0.683594,0.9375 0.859375,1.640625 -0.07813,0 -0.07813,0.07813 0.273438,0.03906 0.273438,0.390625 v 0.09766 q -0.07813,0 -0.09766,0.07813 h 0.07813 q 0.01953,-0.05859 0.07813,-0.05859 l 0.07813,0.15625 -0.17578,0.05859 v -0.01953 q 0,-0.05859 -0.05859,-0.05859 l -0.01953,0.07813 q 0.03906,0 0.234375,0.175782 v -0.07813 q -0.07813,0 -0.07813,-0.07813 l 0.15625,0.01953 v 0.03906 q 0,0.273437 0.234375,0.761718 -0.07813,0 -0.07813,0.05859 z m -3.9456,17.1291 q -0.05859,-0.175781 -0.05859,-0.234375 l 0.15625,0.07813 0.44922,-0.66406 h -0.07813 q -0.234375,0.507812 -0.507812,0.507812 v -0.07813 q 0.722656,-0.761718 1.71875,-3.144531 h -0.07813 q 1.015625,-2.324219 1.308594,-5.449219 0.273437,-2.519531 0.273437,-3.652343 0,-4.238282 -1.757812,-7.558594 -0.703125,-0.800781 -1.132813,-0.800781 -0.722656,0 -1.113281,1.210937 -0.07813,0 -0.175781,0.214844 0.07813,0.01953 0.07813,0.09766 -0.3125,0 -1.25,3.007813 -0.488282,1.894531 -0.683594,3.945312 -0.273438,2.753906 -0.273438,4.023438 0,4.433593 1.640625,7.636718 0.625,0.78125 1.09375,0.820313 l 0.01953,-0.07813 0.13672,0.09766 0.17578,-0.07813 v 0.01953 q 0,0.05859 0.05859,0.07813 z m 1.1914,-0.9765 q 0.488281,-0.332031 1.347656,-2.460938 l -0.07813,-0.01953 0.27344,-0.44922 h -0.07813 l 0.19531,-0.29297 h -0.07813 l 0.17578,-0.3125 h -0.07813 q 0.292969,-0.703125 0.703125,-2.363281 -0.05859,0 -0.05859,-0.05859 h 0.03906 q 0.03906,-0.01953 0.03906,-0.09766 h -0.07813 q 0.15625,-0.839844 0.234375,-0.839844 -0.05859,-0.175781 -0.05859,-0.253906 0.117188,-0.214844 0.195313,-0.214844 l -0.07813,-0.15625 q 0.03906,-0.15625 0.09766,-0.15625 -0.01953,-0.625 -0.09766,-0.644531 0.117187,-0.371094 0.195312,-0.371094 l -0.05859,-0.15625 0.09766,-1.0156 0.09766,-0.13672 -0.15625,-0.01953 v -0.07813 l 0.15625,0.01953 q 0,-0.136718 -0.05859,-0.253906 h 0.01953 q 0.05859,0 0.07813,-0.05859 l -0.07813,-0.01953 q -0.01953,0.07813 -0.09766,0.07813 l 0.07813,-0.78125 0.09766,-0.13672 -0.15625,-0.01953 q 0.175782,-0.175781 0.175782,-0.214843 l -0.07813,-0.01953 q 0,0.07813 -0.07813,0.07813 v -0.15625 l 0.15625,0.01953 0.01953,-0.07813 -0.15625,-0.01953 q 0,-0.07813 0.07813,-0.07813 l -0.05859,-0.15625 0.09766,-0.15625 h -0.07813 q -0.01953,0.07813 -0.09766,0.07813 l -0.05859,-0.17578 0.23438,0.01953 0.01953,-0.07813 h -0.15625 l 0.07813,-0.15625 q -0.05859,0 -0.05859,-0.05859 v -0.01953 h 0.07813 q -0.117188,-0.234375 -0.117188,-0.371094 v -0.03906 h 0.01953 q 0.05859,0 0.05859,-0.05859 -0.07813,-0.01953 -0.07813,-0.09766 l 0.07813,0.01953 q -0.03906,-0.234375 -0.117187,-0.253906 0.05859,-0.09766 0.09766,-0.214844 l -0.15625,-0.01953 0.09766,-0.15625 -0.07813,-0.15625 0.03906,-0.23438 h -0.07813 l 0.09766,-0.23438 h -0.07813 l -0.01953,0.15625 -0.07813,-0.01953 v -0.15625 q 0,-0.390625 -0.136719,-0.800781 h -0.07813 l 0.09766,-0.23438 h -0.15625 l 0.01953,-0.15625 0.13672,0.07813 0.09766,-0.13672 -0.07813,-0.01953 q 0,0.07813 -0.07813,0.07813 l -0.72266,-2.4219 q 0.07813,0 0.09766,-0.07813 h -0.07813 q -0.01953,0.05859 -0.07813,0.05859 h -0.01953 v -0.03906 q 0,-0.15625 -0.175781,-0.449219 h 0.01953 q 0.05859,0 0.05859,-0.05859 -0.09766,-0.01953 -0.839844,-1.035156 v 0.07813 q 1.679687,2.382812 1.757812,8.574219 h -0.07813 l 0.05859,0.15625 -0.07813,0.70313 q 0,0.175781 0.05859,0.3125 -0.01953,0.07813 -0.09766,0.07813 0.01953,0.78125 0.09766,0.78125 l -0.09766,0.15625 q -0.09766,1.074218 -0.175781,1.074218 h -0.01953 l 0.07813,0.17578 q -0.01953,0.15625 -0.117188,0.292969 0.07813,0.01953 0.07813,0.09766 l -0.07813,-0.01953 v 0.01953 q 0,0.05859 0.05859,0.07813 -0.195312,1.972657 -1.5625,5.566407 0.07813,0.01953 0.07813,0.09766 -0.09766,0 -0.683594,1.269531 z m 1.5039,-18.7106 0.01953,-0.13672 -0.13672,-0.09766 q 0.03906,0.117187 0.03906,0.195312 v 0.03906 h 0.07813 z m -5.0977,0.918 q 0.01953,-0.175781 0.292969,-0.585937 l -0.07813,-0.01953 q -0.117188,0 -0.351563,0.371093 0.05859,0.15625 0.05859,0.234375 z m -1.582,17.7535 q -0.585937,-1.679688 -0.859375,-4.003906 0.07813,0 0.07813,-0.07813 -0.05859,0 -0.05859,-0.05859 v -0.01953 h 0.07813 q -0.15625,-0.800781 -0.15625,-1.464844 0,-0.3125 0.03906,-0.585937 0.07813,0 0.07813,-0.07813 -0.136719,0 -0.136719,-0.117188 v -0.03906 h 0.07813 q -0.03906,-0.175781 -0.05859,-1.035156 l 0.07813,0.01953 -0.05859,-0.15625 q 0.01953,-0.214844 0.117188,-0.390625 -0.07813,0 -0.07813,-0.07813 h 0.07813 l -0.05859,-0.15625 0.09766,-1.0156 q 0,-0.07813 -0.07813,-0.07813 l 0.09766,-0.15625 q 0.117188,-1.152344 0.175781,-1.152344 h 0.01953 q -0.05859,-0.117187 -0.05859,-0.253906 l 0.09766,-0.13672 -0.07813,-0.01953 q 0.09766,-0.175781 0.234375,-0.761719 h -0.07813 l 0.214839,-0.60547 -0.07813,-0.01953 0.23438,-0.76172 h -0.07813 q 0.195313,-0.371094 0.195313,-0.527344 h -0.07813 l 0.19531,-0.3125 h -0.07813 q 0.09766,-0.214843 0.15625,-0.214843 h 0.01953 l -0.05859,-0.15625 q 0.878906,-2.5 1.25,-3.183594 -0.05859,-0.15625 -0.05859,-0.234375 l -0.07813,-0.01953 q -0.01953,0.136719 -0.390625,0.742187 0.07813,0.01953 0.07813,0.09766 -0.195312,0 -0.898437,2.03125 l -0.01953,0.07813 q 0.07813,0 0.07813,0.07813 -0.429688,0 -1.113281,4.921875 l -0.01953,0.15625 0.07813,0.15625 -0.17578,0.05859 0.05859,0.17578 -0.15625,0.91797 0.07813,0.01953 -0.09766,0.13672 0.05859,0.15625 q -0.07813,0 -0.07813,0.07813 h 0.07813 q -0.09766,0.175781 -0.117188,0.390625 l 0.05859,0.15625 h -0.07813 q 0.03906,0.46875 0.117188,0.488281 -0.01953,0.05859 -0.07813,0.05859 h -0.01953 q -0.03906,0.507812 -0.03906,1.035156 0,2.382812 0.917969,5.410156 0.175781,0.46875 0.332031,0.507813 z m 8.125,-14.9025 -0.05859,-0.17578 0.09766,-0.13672 -0.07813,-0.01953 -0.09766,0.15625 q 0,0.15625 0.136719,0.175781 z m -7.8711,13.9845 q -0.03906,-0.09766 -0.03906,-0.234375 V 31.582 l -0.07813,-0.01953 -0.03906,0.23438 z m 1.3281,2.4024 0.01953,-0.07813 q -0.253906,-0.09766 -1.230469,-1.992188 0.07813,0 0.09766,-0.07813 l -0.21484,-0.17578 -0.01953,0.07813 q 0.644531,2.1875 1.347656,2.246093 z m -1.5234,-1.1719 v -0.11719 q 0,-0.117188 -0.136719,-0.136719 v 0.07813 q 0,0.175781 0.136719,0.175781 z m 0.1953,0.332 0.01953,-0.07813 Q 80.5664,33.203094 80.527337,33.203094 v 0.07813 z m 3.4961,6.28909 q -1.855469,0 -3.378906,-0.15625 -1.855469,-0.175781 -2.011719,-0.175781 -0.351562,0 -1.035156,0.03906 l -0.05859,-0.15625 0.01953,-0.23438 0.13672,0.09766 h 0.07813 l -0.05859,-0.15625 q 0.117187,0 0.722656,-0.09766 l -0.07813,-0.15625 q 0.234375,-0.332031 0.585938,-0.332031 h 0.07813 l -0.05859,-0.15625 q 0.01953,-0.175781 1.484375,-0.175781 0.878906,0 2.285156,0.05859 l 0.01953,-0.07813 0.13672,0.09766 2.1875,0.21484 q 1.757812,0.175782 1.757812,0.488282 l -0.09766,0.136719 0.15625,0.01953 v 0.07813 h -0.01953 q -0.15625,0 -0.332031,0.292968 -0.859375,0 -1.367187,0.332032 z M 98.066381,6.406 h 0.15625 q 3.925779,0 6.562499,4.21875 1.09375,2.460937 1.09375,4.765625 v 0.625 l 0.0781,0.15625 q -0.0781,0 -0.0781,0.07813 h 0.0781 q -0.3711,2.832031 -0.85938,4.140625 -0.74219,1.699219 -1.875,3.75 0.0781,0 0.0781,0.07813 -0.21485,0.01953 -1.48438,2.34375 -1.34765,2.109375 -4.062499,4.84375 -0.605468,0.449219 -1.09375,0.78125 0,0.332031 3.749999,4.0625 l 1.6406,0.70313 -0.0781,0.15625 v 0.07813 l 0.0781,0.15625 h -0.23438 l 0.0781,0.15625 q -0.35157,0 -1.64063,0.46875 h -0.0781 q -1.406254,0 -3.437504,-2.265625 -0.820312,-1.015625 -1.71875,-1.796875 0,0.761719 -0.07813,0.78125 h 0.07813 l -0.07813,0.15625 v 1.7188 q 0,2.65625 -0.46875,2.65625 l -0.625,0.39063 h -0.07813 l 0.07813,-0.15625 v -0.07813 q -0.07813,0 -0.234375,-0.07813 v 0.23438 h -0.23438 q -0.15625,0 -0.15625,-0.15625 h 0.07813 q -0.07813,-0.78125 -0.15625,-0.78125 l 0.07813,-0.15625 q 0,-0.07813 -0.07813,-0.07813 l 0.07813,-0.15625 -0.07813,-0.54688 q 0.07813,0 0.07813,-0.07813 -0.07813,0 -0.07813,-0.07813 0.07813,0 0.07813,-0.07813 -0.07813,0 -0.07813,-0.07813 h 0.07813 l -0.07813,-0.15625 v -0.54688 l 0.07813,-0.15625 q -0.07813,0 -0.07813,-0.07813 0.07813,0 0.07813,-0.07813 -0.07813,0 -0.07813,-0.07813 h 0.07813 l -0.07813,-0.15625 v -0.15625 l 0.07813,-0.15625 q -0.07813,0 -0.07813,-0.07813 0.07813,0 0.07813,-0.07813 -0.07813,0 -0.07813,-0.07813 0.07813,0 0.07813,-0.07813 h -0.15625 l 0.07813,-0.15625 v -0.07813 q 0,-0.07813 -0.07813,-0.07813 l 0.07813,-0.15625 v -4.2969 q 0,-0.07813 -0.07813,-0.07813 l 0.07813,-0.15625 v -0.07813 q 0,-0.07813 -0.07813,-0.07813 0.07813,-0.703125 0.15625,-0.703125 l -0.07813,-0.15625 v -0.39063 q 0,-0.07813 0.07813,-0.07813 l -0.07813,-0.15625 v -0.15625 l 0.07813,-0.15625 q -0.07813,0 -0.07813,-0.07813 0.07813,0 0.07813,-0.07813 -0.07813,0 -0.07813,-0.07813 0.07813,0 0.07813,-0.07813 -0.07813,0 -0.07813,-0.07813 h 0.07813 l -0.07813,-0.15625 0.07813,-0.15625 q -0.07813,0 -0.07813,-0.07813 h 0.07813 l -0.07813,-0.15625 v -1.4844 q 0,-0.07813 0.07813,-0.07813 l -0.07813,-0.15625 0.07813,-0.15625 q -0.07813,0 -0.07813,-0.07813 0.07813,0 0.07813,-0.07813 h -0.07813 l 0.07813,-0.15625 v -0.3125 q 0,-0.07813 -0.07813,-0.07813 l 0.07813,-0.15625 V 24.68725 L 93.144471,24.531 q 0.07813,0 0.07813,-0.07813 -0.07813,0 -0.07813,-0.07813 0.07813,0 0.07813,-0.07813 h -0.07813 l 0.07813,-0.15625 v -0.625 q 0,-0.07813 -0.07813,-0.07813 l 0.07813,-0.15625 v -3.125 q 0,-0.07813 0.07813,-0.07813 l -0.07813,-0.15625 q 0,-0.07813 0.07813,-0.07813 l -0.07813,-0.15625 V 19.531 q 0,-0.07813 0.07813,-0.07813 l -0.07813,-0.15625 q 0,-0.07813 0.07813,-0.07813 l -0.07813,-0.15625 V 18.906 l 0.07813,-0.39063 h -0.07813 l 0.07813,-0.15625 q -0.07813,-0.15625 -0.07813,-0.234375 h 0.07813 l -0.07813,-0.15625 q 0,-0.07813 0.07813,-0.07813 l -0.07813,-0.15625 0.07813,-0.15625 h -0.07813 l 0.07813,-0.15625 q 0,-0.07813 -0.07813,-0.07813 l 0.07813,-0.15625 q 0,-0.07813 -0.07813,-0.07813 l 0.07813,-0.15625 q 0,-0.07813 -0.07813,-0.07813 l 0.07813,-0.15625 q 0,-0.07813 -0.07813,-0.07813 l 0.07813,-0.15625 v -1.1719 l 0.07813,-0.15625 h -0.07813 l 0.07813,-0.15625 q 0,-0.07813 -0.07813,-0.07813 l 0.07813,-0.15625 -0.07813,-0.15625 q 0.07813,-0.15625 0.07813,-0.234375 -0.07813,0 -0.07813,-0.07813 l 0.15625,-0.07813 -0.07813,-0.15625 v -0.3125 l 0.07813,-0.15625 h -0.07813 l 0.07813,-0.15625 -0.07813,-0.15625 q 0.07813,0 0.07813,-0.07813 -0.07813,0 -0.07813,-0.07813 0.07813,0 0.07813,-0.07813 -0.07813,0 -0.07813,-0.07813 0.07813,0 0.07813,-0.07813 h -0.07813 l 0.07813,-0.15625 V 12.6559 q 0,-0.07813 -0.07813,-0.07813 l 0.07813,-0.15625 v -0.54688 q 0,-0.07813 -0.07813,-0.07813 l 0.15625,-0.70313 q -0.07813,0 -0.07813,-0.07813 0.07813,0 0.07813,-0.07813 -0.07813,0 -0.07813,-0.07813 0.07813,0 0.07813,-0.07813 -0.07813,0 -0.07813,-0.07813 0.07813,0 0.07813,-0.07813 -0.07813,0 -0.07813,-0.07813 h 0.07813 l 0.15625,0.07813 v -0.07813 q -0.15625,-0.07813 -0.234375,-0.07813 v -0.07813 q 0.234375,0 0.234375,-0.15625 h -0.07813 l 0.07813,-0.15625 V 9.68708 q 0,-0.078125 -0.07813,-0.078125 l 0.07813,-0.15625 v -1.4844 q 0,-1.0351563 0.390625,-1.171875 h 0.07813 q 0.507813,0 0.625,10.625 0.15625,6.09375 0.234375,14.921875 l 1.875,-1.5625 q 2.382813,-2.617188 4.374999,-6.09375 1.40625,-2.617188 1.40625,-2.8125 l -0.15625,0.07813 v -0.07813 l 0.23438,-0.54688 q -0.0781,0 -0.0781,-0.07813 0.35156,0 0.9375,-2.8125 0.3125,-1.074219 0.3125,-2.65625 0,-5.722656 -4.843754,-7.890625 0,0.078125 -0.07813,0.078125 0,-0.3125 -1.796875,-0.46875 h -0.23438 q -0.332031,0 -2.1875,0.46875 l 0.70313,-0.625 q 0.195313,-0.2929688 0.859375,-0.625 V 6.79655 q 0.800782,-0.390625 1.71875,-0.390625 z m 0.9375,0.938 v 0.078125 q 1.855469,0.8398438 2.421879,1.40625 -0.0781,0 -0.0781,0.078125 1.40625,0.9765625 2.57813,3.90625 h -0.0781 q 0.46875,1.386719 0.46875,3.515625 v 0.3125 q 0,0.07813 0.0781,0.07813 l -0.0781,0.15625 v 0.54688 l 0.0781,0.15625 q -0.13672,0 -0.54688,2.421875 -0.41015,1.269531 -1.17187,2.8125 v 0.07813 q 0.0977,0 0.625,-1.015625 -0.0781,0 -0.0781,-0.07813 0.39063,-0.273437 1.25,-3.203125 0.0781,-0.488281 0.23438,-0.9375 h -0.0781 q 0.0781,-0.175781 0.23438,-1.171875 -0.0781,0 -0.0781,-0.07813 0.0781,0 0.0781,-0.07813 h -0.0781 q 0.0781,-0.136719 0.0781,-0.3125 h 0.0781 v 0.23438 h 0.0781 v -1.4844 l -0.0781,-0.15625 q 0.0781,0 0.0781,-0.07813 l -0.15625,-0.07813 0.0781,-0.15625 q 0,-1.875 -1.64062,-4.453125 -2.01172,-2.2070312 -3.515629,-2.421875 0,-0.15625 -0.46875,-0.15625 -0.136718,0.078125 -0.3125,0.078125 z m 0.2344,0 h 0.15625 q 0.15625,0.078125 0.234375,0.078125 V 7.50025 h -0.15625 Q 99.316406,7.422125 99.238281,7.422125 Z m -6.4844,0.312 h 0.07813 v 0.15625 l 0.15625,-0.078125 q 0,0.078125 0.07813,0.234375 h -0.07813 q 0,0.078125 0.07813,0.078125 -0.07813,1.0546875 -0.07813,1.5625 v 1.875 q 0,0.07813 0.07813,0.07813 -0.05859,0.3125 -0.15625,0.3125 l 0.07813,0.15625 v 0.15625 q 0,0.07813 -0.07813,0.07813 l 0.07813,0.15625 v 0.70313 q 0,0.07813 -0.07813,0.07813 l 0.07813,0.15625 q 0,0.07813 -0.07813,0.07813 l 0.07813,0.15625 -0.07813,0.39063 q 0.07813,0 0.07813,0.07813 -0.07813,0 -0.07813,0.07813 h 0.07813 l -0.07813,0.15625 q 0,0.07813 0.07813,0.07813 l -0.07813,0.15625 0.07813,0.15625 h -0.07813 l 0.07813,0.15625 q -0.07813,0.15625 -0.07813,0.234375 h 0.07813 l -0.07813,0.15625 v 0.46875 q 0,0.07813 0.07813,0.07813 l -0.07813,0.15625 v 0.46875 q 0,0.07813 0.07813,0.07813 l -0.07813,0.15625 q 0,0.07813 0.07813,0.07813 l -0.07813,0.15625 v 0.39063 q 0,0.07813 0.07813,0.07813 l -0.07813,0.15625 q 0,0.07813 0.07813,0.07813 l -0.07813,0.15625 q 0,0.07813 0.07813,0.07813 0,0.07813 -0.07813,0.07813 l 0.07813,0.39063 v 0.07813 q 0,0.07813 -0.07813,0.07813 0.07813,0.15625 0.07813,0.234375 l -0.07813,0.15625 q 0.07813,0.136719 0.07813,0.3125 0,0.07813 -0.07813,0.07813 l 0.07813,0.15625 v 0.39063 q 0,0.07813 -0.07813,0.07813 0.07813,0.15625 0.07813,0.234375 0,0.07813 -0.07813,0.07813 l 0.07813,0.39063 v 0.625 q 0,0.07813 0.07813,0.07813 l -0.07813,0.15625 v 4.6094 q 0,0.07813 0.07813,0.07813 l -0.07813,0.15625 v 3.0469 q 0,0.07813 -0.07813,0.07813 l 0.07813,0.15625 v 0.3125 q 0,0.07813 -0.07813,0.07813 l 0.07813,0.15625 v 0.78125 q 0,0.07813 0.07813,0.07813 l -0.07813,0.15625 v 1.6406 q 0,0.07813 -0.07813,0.07813 l 0.07813,0.15625 v 2.2656 q 0,0.07813 -0.07813,0.07813 0.07813,0.46875 0.15625,0.46875 -0.07813,0.859375 -0.15625,0.859375 l 0.07813,0.15625 v 1.3281 l -0.07813,0.15625 q 0.07813,0 0.07813,0.07813 h -0.07813 q 0,0.07813 0.07813,0.07813 l -0.07813,0.70313 q 0.07813,0.683594 0.07813,0.859375 h -0.23438 q -0.546875,0 -0.546875,-3.515625 v -0.54688 q 0,-0.07813 -0.07813,-0.07813 l 0.07813,-0.15625 V 34.8435 q 0,-0.07813 -0.07813,-0.07813 l 0.07813,-0.15625 v -3.5156 q 0,-0.07813 -0.07813,-0.07813 l 0.07813,-0.15625 v -0.85938 q 0,-0.07813 -0.07813,-0.07813 0.07813,-0.15625 0.07813,-0.234375 0,-2.246094 0.07813,-10.15625 h 0.07813 q 0,-0.07813 -0.07813,-0.07813 l 0.07813,-0.39063 v -3.8281 l 0.07813,-0.15625 h -0.07813 l 0.07813,-0.15625 v -0.07813 q 0,-3.789062 0.3125,-7.1875 z m 9.531399,14.766 v 0.07813 q -0.0781,0.136719 -0.0781,0.3125 h -0.0781 v -0.3125 z m -0.234,0.39 v 0.07813 q 0,0.410156 -0.23437,0.46875 v -0.07813 q 0.0586,-0.46875 0.23437,-0.46875 z m -0.391,0.547 h 0.15625 v 0.07813 q -0.23437,0.351563 -0.23437,0.46875 h -0.0781 V 23.6715 q 0.15625,0 0.15625,-0.3125 z m -0.156,0.547 v 0.07813 q -0.0781,0.15625 -0.0781,0.234375 h -0.0781 v -0.23438 z m -0.313,0.547 v 0.07813 q -0.15625,0.253906 -0.15625,0.390625 l -0.15625,-0.07813 q 0.15625,-0.351563 0.3125,-0.390625 z M 100.72268,25 h 0.0781 v 0.3125 l -0.15625,0.07813 V 25.3125 q 0.0781,-0.136719 0.0781,-0.3125 z m -5.468799,8.0469 v 0.07813 q 0,0.07813 0.07813,0.07813 l -0.07813,0.15625 v 0.07813 h 0.07813 v -0.15625 q 0.15625,0.01953 0.15625,0.15625 v 0.07813 h -0.15625 q 0,0.117187 0.234375,0.234375 l 0.15625,-0.07813 q 0,0.117187 0.546875,0.546875 l -0.07813,0.15625 v 0.07813 h 0.07813 V 34.2969 q 0.09766,0 0.859375,0.859375 v 0.07813 l -0.78125,-0.70313 v 0.07813 q 0.05859,0 0.703125,0.703125 l 0.15625,-0.07813 q 1.386719,1.484375 1.5625,1.484375 0,-0.07813 0.07813,-0.07813 0,0.3125 0.859375,0.46875 h 0.15625 v -0.07813 q -0.390625,0 -1.015625,-0.78125 0,0.07813 -0.07813,0.07813 0,-0.15625 -0.15625,-0.15625 l 0.07813,-0.15625 h -0.23438 l 0.07813,-0.15625 h -0.07813 q 0,0.07813 -0.07813,0.07813 l -0.07813,-0.15625 q 0.07813,0 0.07813,-0.07813 h -0.07813 q 0,0.07813 -0.07813,0.07813 0,-0.3125 -0.3125,-0.3125 l 0.07813,-0.15625 q -0.253906,-0.07813 -0.9375,-0.859375 0.07813,0 0.07813,-0.07813 -0.136718,0 -1.640625,-1.484375 h -0.07813 q -0.15625,0.01953 -0.15625,0.15625 z m 4.2188,4.1406 v 0.07813 q 0.839839,0.3125 0.937499,0.3125 h 0.0781 V 37.5 q -0.859379,-0.3125 -0.937504,-0.3125 z m 1.171899,0.2344 v 0.07813 h 0.3125 V 37.4219 Z M 109.21879,9.766 h 0.0781 q 0.91797,0.15625 3.59375,0.390625 V 10.0785 l 0.15625,0.07813 h 0.85938 q 1.21094,0 3.90625,-0.07813 v -0.07813 q 0.9375,0.07813 0.9375,0.3125 0,0.546875 -0.9375,0.546875 -0.35156,0.3125 -2.10938,0.625 -1.60156,0.15625 -2.42187,0.15625 -2.07031,0 -3.20313,-0.3125 v 0.15625 q 0.21485,1.25 0.3125,1.25 0,0.07813 -0.0781,0.07813 0.23437,1.25 0.23437,4.140625 v 2.2656 q 0,3.183594 -0.23437,10.703125 h 0.0781 l 5.8594,0.54688 q 1.26954,-0.15625 1.48438,-0.3125 0.15625,0.07813 0.23437,0.07813 0,-0.07813 0.0781,-0.07813 0,0.07813 0.0781,0.07813 0,0.332031 -0.625,0.703125 v -0.07813 l -1.3281,0.54688 -0.15625,-0.07813 q 0,0.3125 -2.5,0.390625 h -1.0938 q -0.0781,0 -0.0781,0.07813 -0.13672,-0.15625 -2.03125,-0.3125 l -0.0781,0.15625 v 1.5625 l -0.0781,0.15625 h 0.0781 q -0.0781,0.15625 -0.0781,0.234375 0,1.835937 -0.23438,4.53125 0.0781,0 0.0781,0.07813 2.1875,0.07813 2.8125,0.07813 1.875,0 6.48437,-0.546875 0.0195,0.15625 0.15625,0.15625 -0.41015,1.464844 -6.5625,2.03125 -0.41015,0 -0.70312,0.07813 v -0.07813 q -0.15625,0.07813 -0.23438,0.07813 -2.20703,0 -3.67187,-0.546875 v 0.07813 q 0.0781,0.15625 0.0781,0.234375 l -0.15625,0.07813 q -0.54687,-0.703125 -0.85937,-2.5 l 0.0781,-0.15625 v -0.23438 l -0.0781,-0.15625 h 0.0781 l -0.0781,-0.15625 v -2.8906 l 0.0781,-0.15625 h -0.0781 l 0.0781,-0.15625 v -1.875 l 0.0781,-0.15625 h -0.0781 q 0.0781,-0.15625 0.0781,-0.234375 0,-0.898438 1.09375,-16.71875 h -0.0781 l 0.0781,-0.15625 q 0,-1.445312 -0.54688,-3.75 h 0.46875 l 0.39063,-0.07813 v -0.07813 h -0.15625 v -0.07813 q 0.11719,0 0.54688,-0.46875 -0.0781,0 -0.0781,-0.078125 z m -0.9375,1.25 q 0.39063,0.761719 0.70313,3.125 -0.0781,0 -0.0781,0.07813 h 0.0781 q 0,0.07813 -0.0781,0.07813 l 0.0781,0.78125 v 0.46875 l -0.0781,0.54688 h 0.0781 l -0.0781,0.15625 v 0.07813 l 0.0781,0.15625 q -0.0781,0 -0.0781,0.07813 0.0781,0 0.0781,0.07813 -0.0781,0 -0.0781,0.07813 h 0.0781 l -0.0781,0.15625 v 1.0156 q 0,0.07813 -0.0781,0.07813 l 0.0781,0.15625 -0.0781,0.54688 q 0.0781,0 0.0781,0.07813 -0.0781,0 -0.0781,0.07813 h 0.0781 l -0.0781,0.15625 v 0.23438 q 0,0.07813 0.0781,0.07813 -0.0781,0.15625 -0.0781,0.234375 0,0.78125 -0.23438,5.78125 -0.0781,0 -0.0781,0.07813 h 0.0781 l -0.0781,0.15625 q 0,0.78125 -0.23438,4.765625 h 0.23438 v -0.70313 q 0,-0.07813 0.0781,-0.07813 l -0.0781,-0.15625 0.0781,-0.39063 h -0.0781 q 0.0781,-0.703125 0.15625,-0.703125 l -0.0781,-0.15625 0.0781,-0.39063 q -0.0781,0 -0.0781,-0.07813 0.0781,0 0.0781,-0.07813 h -0.0781 q 0.0781,-0.546875 0.15625,-0.546875 l -0.0781,-0.15625 q 0.0781,-0.136719 0.0781,-0.3125 h -0.0781 l 0.0781,-0.15625 v -0.70313 q 0,-0.07813 0.0781,-0.07813 l -0.0781,-0.15625 0.0781,-0.15625 q -0.0781,0 -0.0781,-0.07813 0.0781,0 0.0781,-0.07813 h -0.0781 q 0.0781,-0.625 0.15625,-0.625 l -0.0781,-0.15625 0.0781,-0.39063 h -0.0781 l 0.0781,-0.15625 v -0.54688 q 0,-0.175781 0.0781,-0.3125 0,-0.07813 -0.0781,-0.07813 0.0977,-0.722656 0.15625,-0.9375 h -0.0781 l 0.0781,-0.15625 q 0,-0.07813 -0.0781,-0.07813 l 0.15625,-0.39063 h -0.0781 l 0.0781,-0.15625 q 0.0781,-1.855469 0.0781,-2.578125 0.15625,0 0.15625,-0.15625 h -0.0781 l 0.0781,-0.15625 v -0.07813 q 0,-0.07813 -0.0781,-0.07813 l 0.0781,-0.15625 v -0.46875 q 0,-0.07813 -0.0781,-0.07813 l 0.15625,-0.39063 h -0.0781 l 0.0781,-0.15625 v -1.875 h 0.0781 v 0.625 h 0.0781 v -1.875 q 0,-2.65625 -0.85937,-2.65625 -0.23438,0 -0.23438,-0.15625 -0.15625,0.07813 -0.23437,0.07813 z m 1.25,4.687 v 0.54688 h 0.0781 V 15.703 Z m -1.25,15.4689 q 0,0.253906 -0.0781,0.390625 h 0.0781 l -0.0781,0.15625 v 1.875 l -0.0781,0.15625 h 0.0781 l -0.0781,0.15625 v 0.23438 q 0,0.07813 0.0781,0.07813 l -0.0781,0.15625 v 2.1875 q 0,0.07813 -0.0781,0.07813 l 0.0781,0.15625 v 0.23438 l -0.0781,0.39063 h 0.0781 l -0.0781,0.15625 v 0.23438 q 0,0.332031 0.15625,0.625 -0.0781,0 -0.0781,0.07813 h 0.23438 v -0.15625 q 0,-0.07813 -0.0781,-0.07813 l 0.0781,-0.15625 v -0.54688 l -0.0781,-0.15625 h 0.0781 l -0.0781,-0.15625 v -0.07813 l 0.0781,-0.15625 h -0.0781 q 0,-0.07813 0.0781,-0.07813 l -0.0781,-0.78125 v -0.3125 q 0,-0.07813 0.0781,-0.07813 l -0.0781,-0.15625 v -0.07813 l 0.0781,-0.15625 q -0.0781,0 -0.0781,-0.07813 0.0781,0 0.0781,-0.07813 h -0.0781 l 0.0781,-0.15625 q 0,-0.07813 -0.0781,-0.07813 l 0.0781,-0.15625 v -0.15625 q 0,-0.07813 -0.0781,-0.07813 l 0.0781,-0.15625 v -1.6406 l 0.0781,-0.15625 h -0.0781 l 0.0781,-0.15625 v -1.0938 l 0.0781,-0.15625 -0.15625,-0.07813 h -0.0781 z"
       id="path4538"
       inkscape:connector-curvature="0" />
  </g>
  <g
     id="SvgjsG1957"
     transform="matrix(0.9314325586531692,0,0,0.9314325586531692,118.32342032848433,88.59769187043827)"
     fill="#222831">
    <path
       d="M10.18 18.68 l0.1 1.32 l-8.48 0 l0 -14 l8.08 0 l0.1 1.32 l-6.78 0 l0 3.92 l4.74 0 l0 1.32 l-4.74 0 l0 6.12 l6.98 0 z M23.119 20 l-1.62 0 l-3.54 -5.76 l-3.56 5.76 l-1.64 0 l4.38 -7.08 l-4.28 -6.92 l1.64 0 l3.44 5.6 l3.46 -5.6 l1.64 0 l-4.28 6.92 z M31.537999999999997 6 c3.28 0 4.8 2.5 4.8 5.08 c0 2.56 -1.52 5.06 -4.8 5.06 l-3.7 0 l0 3.86 l-1.4 0 l0 -14 l5.1 0 z M31.458 14.82 c2.28 0 3.46 -1.76 3.46 -3.74 c0 -2 -1.18 -3.76 -3.46 -3.76 l-3.62 0 l0 7.5 l3.62 0 z M41.597 18.68 l6.18 0 l-0.1 1.32 l-7.48 0 l0 -14 l1.4 0 l0 12.68 z M57.596000000000004 20.2 c-4 0 -7.14 -3.2 -7.14 -7.2 s3.14 -7.2 7.14 -7.2 s7.16 3.2 7.16 7.2 s-3.16 7.2 -7.16 7.2 z M57.596000000000004 18.88 c3.24 0 5.72 -2.58 5.72 -5.88 s-2.48 -5.88 -5.72 -5.88 s-5.72 2.58 -5.72 5.88 s2.48 5.88 5.72 5.88 z M73.635 5.800000000000001 c1.1 0 2.1 0.34 3.08 1.06 l-0.7 1.06 c-0.74 -0.54 -1.56 -0.82 -2.4 -0.82 c-2.22 0 -3.6 2.04 -3.6 5.3 l0 7.6 l-1.38 0 l0 -14 l1.38 0 l0 2.06 c0.76 -1.42 2 -2.26 3.62 -2.26 z M92.19400000000002 13 l0 0.54 l-11.46 0 c0.18 2.96 1.88 5.36 5.42 5.36 c1.84 0 3.56 -0.9 4.48 -2 l0.88 0.88 c-1.08 1.28 -2.96 2.42 -5.36 2.42 c-4.52 0 -6.84 -3.2 -6.84 -7.2 c0 -4.02 2.86 -7.2 6.66 -7.2 c4 0 6.22 3.18 6.22 7.2 z M85.97400000000002 7.1 c-2.8 0 -4.9 2.3 -5.22 5.16 l10.1 0 c-0.24 -2.92 -1.88 -5.16 -4.88 -5.16 z M113.932 6 l-4.98 7.72 l0 6.28 l-1.4 0 l0 -6.24 l-5 -7.76 l1.6 0 l4.1 6.34 l4.08 -6.34 l1.6 0 z M123.671 20.2 c-4 0 -7.14 -3.2 -7.14 -7.2 s3.14 -7.2 7.14 -7.2 s7.16 3.2 7.16 7.2 s-3.16 7.2 -7.16 7.2 z M123.671 18.88 c3.24 0 5.72 -2.58 5.72 -5.88 s-2.48 -5.88 -5.72 -5.88 s-5.72 2.58 -5.72 5.88 s2.48 5.88 5.72 5.88 z M143.85000000000002 6 l1.38 0 l0 14 l-1.38 0 l0 -1.76 c-0.8 1.22 -2.26 1.96 -4.14 1.96 c-3.1 0 -5.16 -1.76 -5.16 -5.04 l0 -9.16 l1.38 0 l0 8.76 c0 2.8 1.66 4.14 3.78 4.14 c1.96 0 4.14 -1.22 4.14 -3.56 l0 -9.34 z M154.66900000000004 5.800000000000001 c1.1 0 2.1 0.34 3.08 1.06 l-0.7 1.06 c-0.74 -0.54 -1.56 -0.82 -2.4 -0.82 c-2.22 0 -3.6 2.04 -3.6 5.3 l0 7.6 l-1.38 0 l0 -14 l1.38 0 l0 2.06 c0.76 -1.42 2 -2.26 3.62 -2.26 z M168.10700000000003 13 c0 -4.04 3.18 -7.2 7.18 -7.2 c1.68 0 3.32 0.58 4.7 1.66 l-0.7 1.08 c-1.18 -0.94 -2.54 -1.44 -4 -1.44 c-3.24 0 -5.8 2.62 -5.8 5.9 s2.58 5.9 5.8 5.9 c1.54 0 2.94 -0.54 4 -1.52 l0.72 1.08 c-1.26 1.1 -2.96 1.74 -4.72 1.74 c-4 0 -7.18 -3.18 -7.18 -7.2 z M183.64600000000004 20 l0 -14 l1.4 0 l0 14 l-1.4 0 z M198.12500000000003 7.32 l-4.24 0 l0 12.68 l-1.4 0 l0 -12.68 l-4.26 0 l0.1 -1.32 l9.7 0 z M211.40400000000002 6 l-4.98 7.72 l0 6.28 l-1.4 0 l0 -6.24 l-5 -7.76 l1.6 0 l4.1 6.34 l4.08 -6.34 l1.6 0 z M214.90300000000002 15.219999999999999 l-0.06 -9.22 l1.4 0 l-0.04 9.22 l-1.3 0 z M215.56300000000005 20.1 c-0.58 0 -1 -0.42 -1 -1 c0 -0.54 0.42 -0.98 1 -0.98 c0.54 0 0.96 0.44 0.96 0.98 c0 0.58 -0.42 1 -0.96 1 z"
       id="path4541" />
  </g>
</svg>
